<svg width="32" height="32" viewBox="0 0 32 32" fill="none" xmlns="http://www.w3.org/2000/svg">
<g clip-path="url(#clip0_742_711)">
<path d="M0.959961 28.16V2.23996C0.959961 1.27996 1.27996 0.959961 2.23996 0.959961H29.76C30.72 0.959961 31.04 1.59996 31.04 2.55996V29.76C31.04 30.4 31.04 31.04 29.76 31.04H3.83996L0.959961 28.16Z" fill="#90B1DE" stroke="#2C3D60" stroke-width="1.5"/>
<path d="M1.92004 1.91992V27.8399L4.16004 30.0799H30.08V1.91992H1.92004Z" fill="#4E7EC2"/>
<path d="M8.96005 19.8398C7.68005 19.8398 7.68005 20.4798 7.68005 21.1198V31.0398H24.3201V21.1198C24.3201 20.4798 24.0001 19.8398 23.0401 19.8398H8.96005ZM12.1601 21.1198C14.4001 21.1198 14.0801 22.0798 14.0801 22.0798V27.8398C14.0801 27.8398 14.4001 28.7998 12.1601 28.7998C10.2401 28.7998 10.5601 27.8398 10.5601 27.8398V22.0798C10.5601 22.0798 10.2401 21.1198 12.1601 21.1198Z" fill="#999999" stroke="#555555" stroke-width="2"/>
<path d="M5.43994 1.28027H26.5599V4.48027H5.43994V1.28027Z" fill="#FF0000" fill-opacity="0.7"/>
<path d="M5.43994 4.48047H26.5599V17.9205H5.43994V4.48047Z" fill="#EEEEEE"/>
<path d="M2.56006 2.87988H4.48006V4.79988H2.56006V2.87988Z" fill="#2C3D60"/>
<path d="M6.71997 15.0397H25.28M6.71997 11.1997H25.28M6.71997 7.67969H25.28" stroke="#BBBBBB" stroke-width="2"/>
</g>
<defs>
<clipPath id="clip0_742_711">
<rect width="32" height="32" fill="white"/>
</clipPath>
</defs>
</svg>
