<svg width="1000" height="1000" viewBox="0 0 1000 1000" fill="none" xmlns="http://www.w3.org/2000/svg">
<g clip-path="url(#clip0_727_245)">
<path d="M1000 571.4V500H786V857H857.333V714.2H964.333V642.8H857.333V571.4H1000Z" fill="#FF5757"/>
<path d="M606.857 857H464V500H606.857C635.264 500.031 662.498 511.325 682.584 531.403C702.671 551.482 713.969 578.705 714 607.1V749.9C713.969 778.295 702.671 805.518 682.584 825.597C662.498 845.675 635.264 856.969 606.857 857ZM535.429 785.6H606.857C616.326 785.59 625.404 781.825 632.099 775.132C638.795 768.439 642.561 759.365 642.571 749.9V607.1C642.561 597.635 638.795 588.561 632.099 581.868C625.404 575.175 616.326 571.41 606.857 571.4H535.429V785.6Z" fill="#FF5757"/>
<path d="M321.571 500H143V857H214.429V749.9H321.571C340.508 749.875 358.661 742.344 372.051 728.959C385.441 715.575 392.974 697.429 393 678.5V571.4C392.978 552.47 385.446 534.322 372.055 520.937C358.664 507.551 340.509 500.022 321.571 500ZM214.429 678.5V571.4H321.571L321.607 678.5H214.429Z" fill="#FF5757"/>
<path d="M713.988 428.578V285.723C714.116 281.029 713.225 276.363 711.376 272.047C709.527 267.731 706.764 263.868 703.278 260.723L453.382 10.7264C450.24 7.23821 446.378 4.47379 442.064 2.624C437.749 0.774215 433.085 -0.116865 428.393 0.0122757H71.3988C52.4797 0.0678639 34.3514 7.61111 20.9736 20.9944C7.59576 34.3776 0.0555657 52.5133 0 71.44V928.572C0 947.516 7.52235 965.684 20.9122 979.079C34.3021 992.475 52.4627 1000 71.3988 1000H642.589V928.572H71.3988V71.44H356.994V285.723C357.05 304.65 364.59 322.785 377.968 336.169C391.345 349.552 409.474 357.095 428.393 357.151H642.589V428.578H713.988ZM428.393 285.723V85.7255L628.309 285.723H428.393Z" fill="#FF5757"/>
</g>
<defs>
<clipPath id="clip0_727_245">
<rect width="1000" height="1000" fill="white"/>
</clipPath>
</defs>
</svg>
