<svg width="1000" height="1000" viewBox="0 0 1000 1000" fill="none" xmlns="http://www.w3.org/2000/svg">
<path d="M860.667 30H518.191L440.857 184.8H10V804H938V30H860.667ZM860.667 184.8H558.698L599.206 107.4H860.667V184.8Z" fill="#55BFA0"/>
<path d="M990 409.037C990 595.716 990 782.37 990 969H216C216 782.321 216 595.654 216 409L990 409.037Z" fill="#2DCC9F"/>
<path d="M830.621 483.158C816.343 480.137 801.455 482.343 788.668 489.375C775.88 496.408 766.043 507.798 760.947 521.473C755.851 535.148 755.835 550.199 760.902 563.884C765.969 577.57 775.782 588.981 788.555 596.04C801.328 603.1 816.211 605.337 830.495 602.346C844.779 599.355 857.514 591.334 866.382 579.743C875.249 568.152 879.659 553.763 878.81 539.194C877.96 524.625 871.907 510.845 861.752 500.364C853.31 491.669 842.474 485.68 830.621 483.158Z" fill="white"/>
<path d="M661.479 802.469L511.053 593.169L287.716 903.674H588.863C613.105 869.927 637.372 836.192 661.663 802.469" fill="white"/>
<path d="M770.532 689.143C719.075 760.665 667.644 832.188 616.237 903.711H924.863C873.432 832.114 821.988 760.592 770.532 689.143Z" fill="white"/>
</svg>
