<svg width="400" height="300" viewBox="0 0 400 300" fill="none" xmlns="http://www.w3.org/2000/svg">
<path d="M32.3744 289.358C31.8611 289.358 31.3688 289.154 31.0058 288.791C30.6429 288.428 30.439 287.936 30.439 287.423V10.3299C30.439 9.81664 30.6429 9.32436 31.0058 8.9614C31.3688 8.59844 31.8611 8.39453 32.3744 8.39453C32.8877 8.39453 33.38 8.59844 33.7429 8.9614C34.1059 9.32436 34.3098 9.81664 34.3098 10.3299V287.423C34.3098 287.936 34.1059 288.428 33.7429 288.791C33.38 289.154 32.8877 289.358 32.3744 289.358Z" fill="#093F68"/>
<path d="M364.356 289.898H32.3744C31.8611 289.898 31.3688 289.694 31.0058 289.331C30.6429 288.968 30.439 288.476 30.439 287.963C30.439 287.449 30.6429 286.957 31.0058 286.594C31.3688 286.231 31.8611 286.027 32.3744 286.027H364.356C364.869 286.027 365.361 286.231 365.724 286.594C366.087 286.957 366.291 287.449 366.291 287.963C366.291 288.476 366.087 288.968 365.724 289.331C365.361 289.694 364.869 289.898 364.356 289.898Z" fill="#093F68"/>
<path d="M378.407 288.603L366.794 297.486C366.572 297.657 366.307 297.762 366.028 297.789C365.749 297.816 365.468 297.764 365.218 297.639C364.967 297.513 364.757 297.32 364.612 297.081C364.466 296.842 364.39 296.566 364.394 296.286V278.558C364.39 278.278 364.466 278.002 364.612 277.763C364.757 277.524 364.967 277.33 365.218 277.205C365.468 277.08 365.749 277.028 366.028 277.055C366.307 277.082 366.572 277.187 366.794 277.358L378.407 286.222C378.591 286.361 378.74 286.541 378.843 286.747C378.946 286.954 379 287.181 379 287.412C379 287.643 378.946 287.871 378.843 288.077C378.74 288.284 378.591 288.464 378.407 288.603Z" fill="#093F68"/>
<path d="M33.574 3.59353L42.4382 15.206C42.6081 15.4265 42.7129 15.6903 42.7406 15.9673C42.7683 16.2444 42.7179 16.5236 42.595 16.7735C42.4721 17.0233 42.2816 17.2337 42.0453 17.3808C41.8089 17.528 41.536 17.6059 41.2576 17.6059H23.5099C23.2298 17.6096 22.9544 17.5343 22.7151 17.3886C22.4759 17.2429 22.2826 17.0328 22.1573 16.7822C22.0321 16.5317 21.9799 16.251 22.0069 15.9722C22.0339 15.6934 22.1389 15.4278 22.3099 15.206L31.1935 3.59353C31.3323 3.40918 31.5122 3.25961 31.7187 3.15661C31.9253 3.05361 32.1529 3 32.3837 3C32.6146 3 32.8422 3.05361 33.0488 3.15661C33.2553 3.25961 33.4351 3.40918 33.574 3.59353Z" fill="#093F68"/>
<path d="M33 44H337V73H33V44Z" fill="#68E1FD"/>
<path d="M337.065 75H32.9353C32.422 75 31.9298 74.7911 31.5668 74.4191C31.2039 74.0472 31 73.5428 31 73.0168V43.9832C31 43.4572 31.2039 42.9528 31.5668 42.5809C31.9298 42.2089 32.422 42 32.9353 42H337.065C337.578 42 338.07 42.2089 338.433 42.5809C338.796 42.9528 339 43.4572 339 43.9832V73.0168C339 73.5428 338.796 74.0472 338.433 74.4191C338.07 74.7911 337.578 75 337.065 75ZM34.8706 71.0337H335.129V45.9663H34.8706V71.0337Z" fill="#093F68"/>
<path d="M343 79C354.598 79 364 69.8218 364 58.5C364 47.1782 354.598 38 343 38C331.402 38 322 47.1782 322 58.5C322 69.8218 331.402 79 343 79Z" fill="#68E1FD"/>
<path d="M343.5 81C339.05 81 334.7 79.7097 331 77.2923C327.3 74.8749 324.416 71.439 322.713 67.419C321.01 63.3991 320.564 58.9756 321.432 54.708C322.301 50.4404 324.443 46.5204 327.59 43.4437C330.737 40.3669 334.746 38.2716 339.11 37.4227C343.475 36.5739 347.999 37.0095 352.11 38.6747C356.222 40.3398 359.736 43.1596 362.208 46.7775C364.68 50.3953 366 54.6488 366 59C365.995 64.8332 363.623 70.4261 359.404 74.5508C355.186 78.6755 349.466 80.995 343.5 81ZM343.5 40.7964C339.818 40.7964 336.218 41.864 333.157 43.8643C330.095 45.8645 327.709 48.7075 326.3 52.0338C324.891 55.3601 324.522 59.0202 325.24 62.5514C325.959 66.0825 327.732 69.3261 330.336 71.8719C332.939 74.4177 336.257 76.1515 339.868 76.8539C343.479 77.5562 347.223 77.1957 350.625 75.818C354.026 74.4402 356.934 72.107 358.98 69.1134C361.025 66.1198 362.117 62.6003 362.117 59C362.12 56.607 361.64 54.2369 360.706 52.0251C359.772 49.8133 358.401 47.803 356.672 46.1091C354.944 44.4152 352.891 43.0709 350.631 42.1528C348.37 41.2347 345.947 40.7609 343.5 40.7584V40.7964Z" fill="#093F68"/>
<path d="M33 107H147V136H33V107Z" fill="#F56132"/>
<path d="M147.078 138H32.9215C32.4119 138 31.9231 137.797 31.5628 137.436C31.2024 137.076 31 136.586 31 136.076V107.924C31 107.414 31.2024 106.924 31.5628 106.564C31.9231 106.203 32.4119 106 32.9215 106H147.078C147.588 106 148.077 106.203 148.437 106.564C148.798 106.924 149 107.414 149 107.924V136.095C148.995 136.602 148.79 137.087 148.43 137.443C148.071 137.8 147.585 138 147.078 138ZM34.843 134.152H145.157V109.848H34.843V134.152Z" fill="#093F68"/>
<path d="M154 142C165.046 142 174 132.822 174 121.5C174 110.178 165.046 101 154 101C142.954 101 134 110.178 134 121.5C134 132.822 142.954 142 154 142Z" fill="#68E1FD"/>
<path d="M154.519 144C150.068 144.004 145.715 142.716 142.012 140.3C138.309 137.884 135.422 134.449 133.716 130.428C132.011 126.407 131.564 121.982 132.431 117.713C133.299 113.443 135.442 109.522 138.59 106.444C141.738 103.366 145.749 101.27 150.115 100.422C154.482 99.5735 159.007 100.011 163.119 101.678C167.231 103.346 170.745 106.168 173.216 109.789C175.687 113.41 177.004 117.666 177 122.019C176.99 127.846 174.618 133.431 170.404 137.551C166.191 141.671 160.478 143.99 154.519 144ZM154.519 103.812C150.836 103.808 147.234 104.873 144.169 106.871C141.104 108.87 138.715 111.712 137.302 115.038C135.89 118.365 135.518 122.026 136.235 125.559C136.951 129.092 138.723 132.338 141.326 134.886C143.93 137.435 147.248 139.171 150.86 139.875C154.473 140.579 158.218 140.219 161.621 138.842C165.025 137.464 167.934 135.131 169.981 132.136C172.028 129.142 173.121 125.621 173.121 122.019C173.11 117.197 171.148 112.574 167.662 109.162C164.177 105.751 159.451 103.827 154.519 103.812Z" fill="#093F68"/>
<path d="M33 171H211V199H33V171Z" fill="#FFBC0E"/>
<path d="M210.08 201H32.9198C32.4106 201 31.9223 200.804 31.5623 200.454C31.2023 200.105 31 199.631 31 199.137V171.863C31 171.369 31.2023 170.895 31.5623 170.546C31.9223 170.196 32.4106 170 32.9198 170H210.08C210.589 170 211.078 170.196 211.438 170.546C211.798 170.895 212 171.369 212 171.863V199.137C212 199.631 211.798 200.105 211.438 200.454C211.078 200.804 210.589 201 210.08 201ZM34.8396 197.274H208.16V173.726H34.8396V197.274Z" fill="#093F68"/>
<path d="M218 205C229.598 205 239 196.046 239 185C239 173.954 229.598 165 218 165C206.402 165 197 173.954 197 185C197 196.046 206.402 205 218 205Z" fill="#68E1FD"/>
<path d="M218.04 208C213.489 208.008 209.038 206.695 205.251 204.227C201.463 201.759 198.509 198.248 196.762 194.137C195.015 190.027 194.554 185.501 195.437 181.134C196.32 176.767 198.507 172.754 201.723 169.604C204.938 166.453 209.036 164.307 213.498 163.435C217.961 162.564 222.588 163.007 226.793 164.709C230.998 166.411 234.592 169.295 237.121 172.996C239.65 176.697 241 181.048 241 185.5C240.995 191.459 238.575 197.173 234.272 201.391C229.968 205.608 224.131 207.985 218.04 208ZM218.04 166.883C214.276 166.883 210.596 167.975 207.467 170.02C204.337 172.066 201.898 174.974 200.457 178.375C199.017 181.777 198.64 185.521 199.374 189.132C200.109 192.743 201.921 196.061 204.583 198.664C207.244 201.268 210.635 203.041 214.327 203.76C218.019 204.478 221.845 204.109 225.323 202.7C228.8 201.291 231.772 198.905 233.863 195.843C235.955 192.782 237.071 189.182 237.071 185.5C237.065 180.564 235.059 175.832 231.491 172.341C227.923 168.851 223.085 166.888 218.04 166.883Z" fill="#093F68"/>
<path d="M33 235H266V263H33V235Z" fill="#F56132"/>
<path d="M266.065 264H32.9347C32.4216 264 31.9295 263.803 31.5667 263.454C31.2038 263.104 31 262.629 31 262.135V234.865C31 234.371 31.2038 233.896 31.5667 233.546C31.9295 233.197 32.4216 233 32.9347 233H266.065C266.578 233 267.071 233.197 267.433 233.546C267.796 233.896 268 234.371 268 234.865V262.135C268 262.629 267.796 263.104 267.433 263.454C267.071 263.803 266.578 264 266.065 264ZM34.8694 260.27H264.131V236.73H34.8694V260.27Z" fill="#093F68"/>
<path d="M272.5 269C283.822 269 293 259.822 293 248.5C293 237.178 283.822 228 272.5 228C261.178 228 252 237.178 252 248.5C252 259.822 261.178 269 272.5 269Z" fill="#68E1FD"/>
<path d="M273 271C268.648 271 264.394 269.68 260.775 267.207C257.157 264.734 254.337 261.218 252.673 257.106C251.008 252.993 250.574 248.468 251.424 244.103C252.275 239.738 254.372 235.729 257.45 232.583C260.529 229.437 264.451 227.296 268.72 226.43C272.988 225.564 277.413 226.012 281.432 227.718C285.452 229.424 288.886 232.311 291.302 236.014C293.717 239.716 295.004 244.068 295 248.519C294.995 254.483 292.675 260.201 288.55 264.417C284.424 268.632 278.831 271 273 271ZM273 229.899C269.399 229.899 265.879 230.991 262.885 233.037C259.891 235.083 257.557 237.991 256.179 241.394C254.801 244.796 254.44 248.54 255.143 252.152C255.845 255.764 257.58 259.082 260.126 261.686C262.672 264.29 265.916 266.064 269.448 266.782C272.98 267.501 276.641 267.132 279.967 265.723C283.294 264.313 286.138 261.927 288.138 258.865C290.139 255.802 291.207 252.202 291.207 248.519C291.202 243.582 289.282 238.849 285.869 235.358C282.455 231.867 277.827 229.904 273 229.899Z" fill="#093F68"/>
<path d="M348.055 118H296.945C296.429 118 295.934 117.842 295.57 117.561C295.205 117.279 295 116.898 295 116.5C295 116.102 295.205 115.721 295.57 115.439C295.934 115.158 296.429 115 296.945 115H348.055C348.571 115 349.066 115.158 349.43 115.439C349.795 115.721 350 116.102 350 116.5C350 116.898 349.795 117.279 349.43 117.561C349.066 117.842 348.571 118 348.055 118Z" fill="#DFEAEF"/>
<path d="M348.061 144H326.939C326.425 144 325.932 143.789 325.568 143.414C325.204 143.039 325 142.53 325 142C325 141.47 325.204 140.961 325.568 140.586C325.932 140.211 326.425 140 326.939 140H348.061C348.575 140 349.068 140.211 349.432 140.586C349.796 140.961 350 141.47 350 142C350 142.53 349.796 143.039 349.432 143.414C349.068 143.789 348.575 144 348.061 144Z" fill="#DFEAEF"/>
<path d="M317.095 144H284.905C284.4 144 283.915 143.789 283.558 143.414C283.201 143.039 283 142.53 283 142C283 141.47 283.201 140.961 283.558 140.586C283.915 140.211 284.4 140 284.905 140H317.095C317.6 140 318.085 140.211 318.442 140.586C318.799 140.961 319 141.47 319 142C319 142.53 318.799 143.039 318.442 143.414C318.085 143.789 317.6 144 317.095 144Z" fill="#DFEAEF"/>
<path d="M348.067 170H284.933C284.42 170 283.928 169.789 283.566 169.414C283.204 169.039 283 168.53 283 168C283 167.47 283.204 166.961 283.566 166.586C283.928 166.211 284.42 166 284.933 166H348.067C348.58 166 349.072 166.211 349.434 166.586C349.796 166.961 350 167.47 350 168C350 168.53 349.796 169.039 349.434 169.414C349.072 169.789 348.58 170 348.067 170Z" fill="#DFEAEF"/>
</svg>
