<svg width="1500" height="1125" viewBox="0 0 1500 1125" fill="none" xmlns="http://www.w3.org/2000/svg">
<path d="M131.473 323.396C150.896 295.155 171.136 267.547 192.193 240.571C197.155 232.925 204.056 226.751 212.182 222.687C220.574 219.319 231.982 221.881 235.329 230.277C237.781 236.396 235.329 243.227 232.972 249.252C218.934 283.668 200.64 316.166 178.522 345.976C200.357 305.876 231.813 271.907 270.027 247.165C278.406 284.47 272.05 323.592 252.301 356.27C258.977 340.373 269.048 326.149 281.798 314.606C294.548 303.063 309.666 294.485 326.08 289.479C321.653 320.54 309.382 349.939 290.44 374.866C302.86 355.078 318.792 337.76 337.442 323.776C338.991 322.245 340.864 321.086 342.922 320.388C344.979 319.69 347.167 319.469 349.322 319.744C356.676 321.878 356.204 332.552 353.612 339.762C348.232 354.85 340.567 369.011 330.889 381.744C334.534 371.069 341.284 361.743 350.262 354.976C359.24 348.209 370.032 344.313 381.238 343.794C390.242 343.51 348.237 424.912 345.032 430.177C326.693 462.909 328.107 486.201 326.174 521.968C321.13 611.008 312.031 705.74 320.329 794.448C322.686 819.732 363.842 1068.63 382.369 1067.16C320.8 1071.91 265.077 1091.12 203.696 1086.9C174.232 1084.91 119.31 1090.17 93.1454 1076.46C58.6838 1058.39 77.5882 962.613 77.3996 931.304C76.8339 855.405 63.6338 780.644 54.2994 705.645C45.9551 638.616 40.5808 570.117 49.9151 502.899C59.2966 433.356 92.2968 380.226 131.473 323.396Z" fill="white"/>
<path d="M221.383 1091.25C215.394 1091.25 209.357 1091.25 203.32 1090.63C195.143 1090.06 184.828 1090.06 173.99 1090.11C144.185 1090.11 110.529 1090.11 90.9443 1079.87C62.4226 1065.12 67.9368 1005.09 71.9298 961.25C72.9756 949.349 73.9263 939.115 73.8788 932.117C73.451 873.948 65.4174 815.303 57.6215 758.609C55.1971 741.044 52.8679 723.527 50.6337 705.962C42.9328 644.508 36.3728 572.153 46.2128 501.893C56.0528 431.633 89.6132 378.128 129.163 321.006C148.558 292.636 169.236 264.646 190.342 237.656C196.76 229.468 202.797 222.375 211.496 218.948C220.195 215.521 233.98 218.044 237.973 227.945C240.778 234.895 237.973 242.225 235.549 248.794C230.32 261.488 224.505 274.007 218.103 286.352C233.43 270.052 250.668 255.667 269.442 243.511C269.78 243.335 270.155 243.244 270.536 243.244C270.916 243.244 271.291 243.335 271.629 243.511C271.987 243.646 272.306 243.87 272.555 244.161C272.804 244.452 272.976 244.801 273.055 245.177C278.827 270.764 277.794 297.419 270.06 322.482C284.988 305.034 304.606 292.246 326.581 285.638C326.963 285.523 327.368 285.507 327.759 285.59C328.149 285.673 328.512 285.853 328.815 286.114C329.115 286.377 329.346 286.71 329.487 287.084C329.628 287.458 329.675 287.86 329.623 288.256C327.046 306.521 321.759 324.298 313.936 340.999C321.085 333.648 328.811 326.883 337.039 320.768C338.892 318.946 341.153 317.594 343.633 316.824C346.114 316.054 348.742 315.889 351.299 316.341C352.634 316.712 353.875 317.362 354.94 318.248C356.005 319.134 356.871 320.237 357.479 321.482C359.692 327.311 359.59 333.768 357.194 339.523C355.958 343.046 354.532 346.568 353.058 349.948C361.879 344.058 372.171 340.76 382.768 340.428C383.375 340.388 383.982 340.519 384.519 340.805C385.056 341.091 385.503 341.52 385.811 342.046C390.992 350.757 348.637 429.681 348.21 430.252C332.38 458.337 331.429 479.139 330.051 507.891C330.051 512.222 329.671 516.649 329.385 521.314C328.482 537.261 327.436 553.398 326.391 569.678C321.637 644.27 316.551 721.432 323.443 794.406C326.961 831.345 368.032 1062.88 383.481 1065.74C384.112 1065.69 384.736 1065.89 385.218 1066.3C385.699 1066.71 385.998 1067.29 386.048 1067.93C386.099 1068.56 385.897 1069.18 385.487 1069.66C385.077 1070.15 384.492 1070.45 383.862 1070.5C360.094 1072.35 336.848 1076.4 314.364 1080.3C284.226 1085.87 253.137 1091.25 221.383 1091.25ZM175.986 1085.35C186.207 1085.35 195.856 1085.35 203.652 1085.87C241.681 1088.49 276.43 1082.4 313.461 1075.97C334.186 1072.35 355.53 1068.64 377.444 1066.45C371.36 1057.31 361.234 1028.99 343.931 942.019C331.287 878.327 320.163 808.734 318.737 794.882C311.797 721.527 316.788 644.222 321.637 569.392C322.683 553.16 323.729 537.023 324.632 521.124C324.917 516.364 325.107 512.032 325.345 507.748C326.628 479.187 327.674 457.004 344.074 427.967C350.872 415.924 381.437 355.042 381.58 344.807C369.116 345.678 357.346 350.881 348.305 359.516C344.169 367.426 339.4 374.988 334.044 382.127C333.715 382.608 333.222 382.951 332.658 383.092C332.093 383.233 331.497 383.162 330.981 382.892C330.466 382.622 330.067 382.172 329.861 381.628C329.654 381.083 329.654 380.482 329.861 379.937C332.795 371.112 337.837 363.138 344.549 356.708C347.734 350.556 350.498 344.194 352.821 337.667C354.737 333.132 354.923 328.05 353.344 323.386C353.022 322.734 352.569 322.156 352.013 321.689C351.456 321.222 350.808 320.876 350.111 320.673C348.288 320.519 346.454 320.767 344.737 321.401C343.02 322.034 341.463 323.037 340.176 324.338C326.329 334.676 313.993 346.901 303.526 360.659C300.388 365.419 297.061 370.464 293.496 374.939C293.12 375.417 292.575 375.733 291.974 375.821C291.373 375.91 290.761 375.765 290.263 375.415C289.758 375.076 289.406 374.552 289.282 373.956C289.158 373.36 289.271 372.739 289.598 372.226C292.687 367.466 296.063 362.372 299.58 357.945C312.237 337.603 320.751 314.954 324.632 291.303C299.807 299.656 278.575 316.249 264.451 338.333C261.751 344.463 258.655 350.41 255.181 356.136C254.858 356.643 254.357 357.011 253.778 357.17C253.198 357.328 252.58 357.265 252.044 356.993C251.512 356.717 251.103 356.25 250.901 355.685C250.698 355.12 250.716 354.499 250.951 353.947C253.602 347.734 256.782 341.762 260.458 336.096C272.307 308.858 275.526 278.636 269.68 249.508C245.923 265.089 224.764 284.317 206.98 306.488C198.843 320.309 189.956 333.673 180.36 346.521C179.999 347.001 179.47 347.327 178.879 347.433C178.288 347.539 177.68 347.417 177.175 347.092C176.677 346.76 176.319 346.256 176.17 345.676C176.021 345.096 176.091 344.482 176.367 343.95C184.092 329.808 193.03 316.365 203.082 303.774C213.768 285.579 223.156 266.65 231.176 247.128C233.457 241.511 235.929 235.133 233.553 229.801C230.605 222.518 220.48 220.614 213.255 223.47C206.029 226.326 200.087 232.991 194.24 240.655C173.182 267.597 152.599 295.539 133.156 323.672C93.939 380.366 60.6638 433.156 50.9664 502.607C41.269 572.058 47.734 644.317 55.3873 705.486C57.5739 723.003 60.1409 740.52 62.3751 757.848C70.171 814.732 78.2521 873.52 78.6799 931.975C78.6799 939.21 77.7768 949.587 76.731 961.583C73.1658 1001.66 67.7467 1062.26 93.3211 1075.59C111.86 1085.11 146.371 1085.11 174.132 1085.11L175.986 1085.35Z" fill="#231F20"/>
<path d="M412.5 1125C410.305 1112.21 356.347 895.149 356.347 895.149L45 840L50.5342 1114.79L412.5 1125Z" fill="#D1D3D4"/>
<path d="M719.114 52.2988V474.352H1245.96C1245.96 463.465 1246.95 435.081 1245.96 424.431C1225.32 206.534 996.489 52.2988 719.114 52.2988Z" fill="#231F20"/>
<path d="M1248.33 476.73H716.688V49.9219H719.065C854.9 49.9219 983.128 87.1018 1080.17 154.52C1178.63 223.079 1238.35 318.834 1248.28 424.003C1249.04 431.753 1248.71 448.108 1248.28 461.23V474.162L1248.33 476.73ZM721.442 471.975H1243.58C1243.58 469.028 1243.58 465.367 1243.58 461.325C1243.82 449.011 1244.15 432.086 1243.58 424.669C1233.78 320.879 1174.78 226.36 1077.46 158.419C981.797 91.8562 855.423 54.9141 721.442 54.4862V471.975Z" fill="#231F20"/>
<path d="M133.744 547.43C133.744 780.398 369.661 969.483 660.634 969.483C951.607 969.483 1187.52 780.541 1187.52 547.43V492.801L660.634 547.43V125.376C369.661 125.376 133.744 314.461 133.744 547.43Z" fill="#231F20"/>
<path d="M135 493.125C135 725.995 370.91 915 661.875 915C952.84 915 1188.75 726.138 1188.75 493.125H661.875V71.25C370.91 71.25 135 260.207 135 493.125Z" fill="#68E1FD"/>
<path d="M720 3.75V423.75H1245C1245 191.915 1009.91 3.75 720 3.75Z" fill="white"/>
<path d="M1246.32 427.5H718.631C718 427.5 717.394 427.249 716.947 426.802C716.501 426.356 716.25 425.75 716.25 425.118V2.38108C716.25 1.74958 716.501 1.14394 716.947 0.697401C717.394 0.250862 718 0 718.631 0C1010.93 0 1248.75 190.725 1248.75 425.118C1248.75 425.435 1248.69 425.749 1248.56 426.041C1248.44 426.333 1248.26 426.597 1248.04 426.819C1247.81 427.041 1247.54 427.215 1247.25 427.332C1246.95 427.449 1246.64 427.506 1246.32 427.5ZM720.965 422.737H1243.89C1242.46 192.677 1008.55 5.80983 720.965 4.76216V422.737Z" fill="#231F20"/>
<path d="M651.095 963.75C650.781 963.743 650.471 963.676 650.183 963.551C649.895 963.425 649.635 963.245 649.417 963.02C649.2 962.795 649.029 962.529 648.914 962.238C648.8 961.947 648.744 961.637 648.75 961.325L657.747 493.582C657.771 493.13 657.916 492.693 658.169 492.317C658.422 491.94 658.772 491.638 659.182 491.443C659.609 491.263 660.079 491.207 660.537 491.283C660.995 491.359 661.421 491.563 661.766 491.871L1022.86 813.319C1023.11 813.522 1023.32 813.774 1023.47 814.06C1023.62 814.347 1023.72 814.661 1023.74 814.984C1023.77 815.307 1023.73 815.632 1023.62 815.939C1023.52 816.246 1023.35 816.528 1023.13 816.768C1022.91 817.008 1022.65 817.201 1022.35 817.336C1022.05 817.47 1021.73 817.543 1021.41 817.549C1021.08 817.556 1020.76 817.496 1020.45 817.373C1020.15 817.251 1019.88 817.068 1019.65 816.837L662.436 498.86L653.536 961.42C653.529 961.732 653.461 962.04 653.335 962.326C653.209 962.612 653.028 962.871 652.801 963.087C652.575 963.303 652.307 963.473 652.015 963.587C651.722 963.701 651.409 963.756 651.095 963.75Z" fill="white"/>
<path d="M86.25 522.925L172.521 432.672C188.46 416.094 206.765 398.376 229.657 397.52C238.407 397.188 248.576 400.893 250.846 409.348C252.501 415.856 248.765 422.411 245.17 428.064C218.179 470.626 189.201 511.794 158.237 551.569C168.767 561.387 177.147 573.298 182.846 586.545C188.545 599.792 191.438 614.085 191.34 628.515C191.242 642.944 188.156 657.196 182.278 670.364C176.4 683.531 167.858 695.327 157.197 705" fill="white"/>
<path d="M157.169 708.75C156.832 708.746 156.5 708.672 156.193 708.531C155.887 708.391 155.613 708.188 155.391 707.936C155.166 707.713 154.987 707.448 154.865 707.157C154.743 706.865 154.68 706.552 154.68 706.236C154.68 705.919 154.743 705.606 154.865 705.315C154.987 705.023 155.166 704.758 155.391 704.535C165.984 695.015 174.471 683.402 180.313 670.435C186.155 657.468 189.223 643.431 189.323 629.218C189.422 615.005 186.551 600.927 180.891 587.88C175.231 574.833 166.907 563.103 156.448 553.436C156.014 553.019 155.746 552.46 155.693 551.862C155.64 551.263 155.806 550.666 156.16 550.18C187.404 510.285 217.061 468.428 244.412 425.66C247.968 420.153 251.285 414.31 249.843 408.706C248.017 401.618 238.836 398.218 230.616 398.553C208.746 399.368 190.768 416.13 174.185 433.275L86.5105 524.27C86.0594 524.674 85.4718 524.893 84.8653 524.884C84.2588 524.874 83.6784 524.636 83.2405 524.218C82.8025 523.8 82.5395 523.233 82.5041 522.629C82.4687 522.026 82.6636 521.431 83.0496 520.965L170.724 429.971C187.981 412.107 206.775 394.626 230.472 393.764C240.085 393.477 251.814 397.548 254.506 407.509C256.428 414.98 252.391 421.877 248.449 428.246C221.435 470.439 192.114 511.818 161.303 551.329C171.909 561.543 180.294 573.821 185.938 587.4C191.582 600.978 194.364 615.568 194.112 630.263C193.859 644.957 190.578 659.444 184.471 672.822C178.364 686.2 169.562 698.185 158.611 708.032C158.226 708.426 157.718 708.679 157.169 708.75Z" fill="#231F20"/>
<path d="M1146.04 945C1151.82 876.174 1194.24 616.117 1176.68 565.578C1167.14 538.551 1142.99 521.547 1120.6 505.587C1100.8 491.337 1065.81 472.338 1061.76 446.736C1061.11 443.996 1061.08 441.147 1061.68 438.395C1062.27 435.643 1063.47 433.057 1065.19 430.824C1067.38 428.936 1069.94 427.535 1072.72 426.716C1075.49 425.897 1078.41 425.678 1081.28 426.074C1105.86 427.166 1122.66 444.361 1145.23 450.298C1167.8 456.236 1186.42 471.72 1209.28 478.228C1224.79 482.645 1243.45 480.745 1254.05 468.728C1259.72 461.235 1263.36 452.42 1264.64 443.126C1273.16 397.861 1269.04 351.137 1252.74 308.039C1236.43 264.941 1208.55 227.121 1172.15 198.696C1163.17 191.904 1152.63 180.789 1158.88 171.432C1163.94 163.879 1175.49 165.684 1183.94 169.057C1248.56 194.896 1293.37 259.305 1306.02 325.803C1299.67 292.317 1294.56 259.59 1282.39 227.623C1275.43 209.288 1238.3 173.379 1256.72 154.665C1259.39 152.349 1262.66 150.821 1266.16 150.25C1269.66 149.68 1273.25 150.09 1276.52 151.435C1283.04 154.289 1288.81 158.577 1293.42 163.974C1335.75 208.671 1352.5 275.692 1365.01 334.306C1364.57 293.107 1358.38 252.168 1346.63 212.661C1342.58 198.981 1337.8 185.111 1338.33 170.862C1338.18 166.598 1339.53 162.416 1342.15 159.034C1349.74 150.77 1363.67 158.512 1370.21 167.679C1378.76 181.183 1385.2 195.902 1389.3 211.331C1404.48 258.83 1419.7 307.944 1412.26 357.058C1416.67 324.311 1417.47 291.18 1414.64 258.26C1413.02 239.26 1410.16 219.501 1413.98 200.596C1424.05 150.77 1453.73 227.575 1456.5 240.638C1463.8 274.837 1463.32 310.604 1460.89 345.135C1453.3 452.958 1418.99 557.551 1418.65 664.804L1417.98 883.679" fill="white"/>
<path d="M1144.36 948.737C1144.05 948.713 1143.75 948.627 1143.47 948.486C1143.19 948.344 1142.94 948.148 1142.73 947.91C1142.53 947.672 1142.37 947.396 1142.28 947.098C1142.18 946.801 1142.15 946.487 1142.17 946.175C1143.7 927.914 1147.89 895.756 1152.7 858.522C1165.81 757.493 1185.64 604.811 1172.91 568.242C1163.9 542.344 1140.88 525.98 1118.68 510.186L1117.77 509.522C1114.62 507.292 1111.1 504.778 1107.38 502.407C1086.98 488.747 1061.63 471.719 1058.05 449.141C1057.33 446.06 1057.32 442.857 1058.01 439.77C1058.7 436.682 1060.09 433.79 1062.06 431.307C1064.46 429.153 1067.31 427.549 1070.41 426.607C1073.5 425.665 1076.77 425.407 1079.98 425.853C1094.89 426.517 1107.09 432.92 1118.87 439.133C1126.91 443.733 1135.45 447.424 1144.32 450.137C1155.95 453.58 1167.15 458.355 1177.68 464.367C1187.48 469.921 1197.83 474.466 1208.56 477.932C1221.29 481.537 1240.02 481.395 1250.84 469.11C1256.21 461.932 1259.65 453.508 1260.84 444.635C1269.44 399.839 1265.44 353.551 1249.3 310.87C1233.15 268.189 1205.48 230.77 1169.34 202.735C1155.04 191.826 1149.94 180.727 1155.56 172.332C1160.33 165.169 1170.77 163.984 1183.49 169.059C1231.58 188.031 1271.76 230.72 1293.4 282.894C1289.87 265.145 1284.95 247.699 1278.67 230.72C1275.47 223.933 1271.62 217.469 1267.18 211.415C1254.74 192.917 1239.21 169.913 1253.6 155.351C1256.59 152.71 1260.27 150.959 1264.21 150.296C1268.16 149.634 1272.21 150.087 1275.9 151.604C1282.6 154.706 1288.48 159.299 1293.11 165.027C1329.38 203.304 1347.11 257.945 1359.36 310.12C1357.08 278.21 1351.33 246.641 1342.2 215.968L1340.86 211.51C1336.42 199.336 1334.04 186.514 1333.81 173.565C1333.67 168.742 1335.24 164.023 1338.24 160.236C1339.61 158.749 1341.3 157.591 1343.18 156.851C1345.06 156.111 1347.09 155.809 1349.11 155.968C1353.3 156.633 1357.3 158.141 1360.88 160.4C1364.47 162.659 1367.55 165.622 1369.94 169.106C1379.47 182.529 1384.85 198.893 1389.48 213.36C1399.21 241.17 1406.66 269.723 1411.73 298.736C1411.73 286.167 1411.16 273.55 1410.11 260.791C1409.83 257.898 1409.59 255.005 1409.3 252.111C1407.73 235.795 1406.11 218.909 1409.3 202.545C1411.83 190.118 1415.83 184.095 1421.6 184.047C1437.14 184.047 1454.96 235.463 1456.44 242.483C1464.35 279.527 1462.97 318.373 1460.87 347.686C1457.49 395.402 1448.81 443.118 1440.38 489.316C1429.8 547.23 1418.88 607.135 1418.69 666.709L1418.03 885.273C1418.03 885.902 1417.77 886.506 1417.33 886.95C1416.88 887.395 1416.27 887.645 1415.64 887.645C1415.02 887.633 1414.42 887.377 1413.99 886.934C1413.55 886.49 1413.31 885.894 1413.31 885.273L1413.97 666.709C1413.97 606.709 1425.13 546.613 1435.71 488.462C1444.14 442.406 1452.82 394.785 1456.15 347.354C1458.25 318.136 1459.58 279.953 1451.86 243.479C1449.05 230.482 1431.66 188.79 1421.7 188.79C1418.74 188.79 1415.98 194.15 1414.07 203.494C1410.88 219.146 1412.45 235.7 1414.07 251.637C1414.36 254.578 1414.64 257.471 1414.88 260.412C1417.46 290.418 1417.06 320.604 1413.69 350.531C1413.4 353.567 1413.02 356.603 1412.59 359.638C1412.49 360.256 1412.14 360.808 1411.64 361.18C1411.13 361.551 1410.5 361.713 1409.88 361.63C1409.26 361.536 1408.7 361.206 1408.33 360.709C1407.96 360.212 1407.79 359.59 1407.87 358.974C1408.26 355.986 1408.64 353.045 1408.97 350.057C1413.45 302.626 1397.77 254.103 1385.14 214.498C1381 199.387 1374.57 184.992 1366.08 171.81C1364.1 168.896 1361.55 166.407 1358.59 164.492C1355.62 162.578 1352.3 161.275 1348.82 160.663C1347.52 160.548 1346.2 160.732 1344.98 161.2C1343.76 161.669 1342.66 162.41 1341.77 163.367C1339.5 166.326 1338.37 169.992 1338.58 173.707C1338.83 186.174 1341.15 198.513 1345.44 210.229L1346.77 214.688C1358.61 254.236 1364.87 295.229 1365.36 336.492C1365.38 337.085 1365.16 337.661 1364.76 338.102C1364.36 338.543 1363.81 338.815 1363.22 338.863C1362.63 338.946 1362.04 338.8 1361.56 338.455C1361.08 338.11 1360.75 337.593 1360.64 337.013C1348.16 278.483 1331.24 212.127 1289.77 168.3C1285.51 163.155 1280.13 159.036 1274.05 156.252C1271.2 155.066 1268.09 154.686 1265.04 155.155C1262 155.624 1259.14 156.923 1256.79 158.908C1245.16 170.719 1259.46 192.11 1271.09 208.996C1275.74 215.345 1279.76 222.128 1283.1 229.249C1293.68 257.044 1298.83 284.839 1304.26 314.199C1305.12 318.658 1305.93 323.163 1306.79 327.622C1306.85 327.933 1306.84 328.254 1306.78 328.564C1306.71 328.874 1306.59 329.169 1306.41 329.431C1306.23 329.693 1306 329.917 1305.74 330.091C1305.47 330.265 1305.17 330.385 1304.86 330.444C1304.54 330.503 1304.22 330.501 1303.91 330.436C1303.6 330.372 1303.3 330.247 1303.04 330.068C1302.78 329.89 1302.55 329.662 1302.38 329.397C1302.2 329.131 1302.08 328.835 1302.02 328.523C1288.68 258.325 1241.4 197.518 1181.54 173.612C1173.48 170.387 1163.43 168.869 1159.38 175.083C1153.61 183.715 1166.33 194.767 1172.1 199.083C1208.95 227.673 1237.15 265.827 1253.61 309.344C1270.06 352.862 1274.13 400.054 1265.37 445.726C1264.06 455.406 1260.23 464.578 1254.27 472.335C1242.02 486.565 1221.19 486.565 1207.08 482.628C1196.04 479.109 1185.4 474.435 1175.34 468.683C1165.18 462.862 1154.39 458.2 1143.17 454.786C1133.95 451.98 1125.08 448.145 1116.72 443.355C1104.85 437.141 1093.65 431.26 1079.83 430.643C1077.31 430.258 1074.72 430.409 1072.26 431.088C1069.8 431.766 1067.5 432.956 1065.53 434.58C1064.1 436.562 1063.1 438.829 1062.63 441.228C1062.15 443.627 1062.2 446.099 1062.77 448.477C1066.01 469.015 1090.41 485.379 1110.05 498.518C1113.81 501.079 1117.39 503.261 1120.53 505.727L1121.44 506.344C1143.22 521.854 1167.91 539.546 1177.39 566.771C1190.5 604.384 1171.39 751.754 1157.42 859.186C1152.66 896.325 1148.46 928.436 1146.94 946.65C1146.91 946.956 1146.82 947.252 1146.67 947.523C1146.53 947.794 1146.33 948.033 1146.09 948.228C1145.85 948.422 1145.57 948.567 1145.28 948.654C1144.98 948.741 1144.67 948.77 1144.36 948.737Z" fill="#231F20"/>
<path d="M1076.25 1117.5C1078.82 1079.55 1127.13 828.151 1127.13 828.151L1437.33 787.5L1447.5 1110.05L1076.25 1117.5Z" fill="#D1D3D4"/>
<path d="M1157.53 896.246C1156.9 896.283 1156.28 896.072 1155.8 895.659C1155.33 895.246 1155.04 894.665 1155 894.044C1154.97 893.423 1155.18 892.812 1155.6 892.347C1156.02 891.881 1156.61 891.599 1157.25 891.561L1399.8 858.769C1400.43 858.69 1401.06 858.857 1401.56 859.234C1402.06 859.612 1402.39 860.169 1402.47 860.784C1402.52 861.086 1402.51 861.394 1402.43 861.69C1402.35 861.986 1402.22 862.265 1402.03 862.509C1401.85 862.753 1401.61 862.958 1401.34 863.113C1401.07 863.267 1400.78 863.367 1400.47 863.407L1157.87 896.199L1157.53 896.246Z" fill="#231F20"/>
<path d="M327.236 956.202L95.9239 934.475C95.6101 934.452 95.3042 934.371 95.0245 934.236C94.7448 934.1 94.4969 933.914 94.2954 933.687C94.0939 933.46 93.943 933.197 93.8515 932.914C93.7601 932.632 93.73 932.335 93.763 932.041C93.793 931.744 93.8853 931.456 94.0346 931.193C94.1839 930.931 94.3873 930.698 94.6328 930.509C94.8784 930.321 95.1614 930.18 95.4655 930.094C95.7695 930.009 96.0885 929.981 96.4041 930.012L327.716 951.739C328.353 951.769 328.951 952.035 329.379 952.479C329.806 952.923 330.029 953.508 329.997 954.106C329.965 954.704 329.682 955.265 329.209 955.667C328.736 956.068 328.113 956.277 327.476 956.247L327.236 956.202Z" fill="#231F20"/>
</svg>
