<svg width="24" height="28" viewBox="0 0 24 28" fill="none" xmlns="http://www.w3.org/2000/svg">
<path d="M2.35494 24.5722C2.35494 25.2325 2.61723 25.8657 3.08413 26.3326C3.55102 26.7995 4.18427 27.0618 4.84455 27.0618H19.7823C20.4426 27.0618 21.0758 26.7995 21.5427 26.3326C22.0096 25.8657 22.2719 25.2325 22.2719 24.5722V7.14485H2.35494V24.5722ZM16.4628 11.2942C16.4628 11.0741 16.5502 10.863 16.7058 10.7074C16.8615 10.5518 17.0726 10.4643 17.2926 10.4643C17.5127 10.4643 17.7238 10.5518 17.8795 10.7074C18.0351 10.863 18.1225 11.0741 18.1225 11.2942V22.9124C18.1225 23.1325 18.0351 23.3436 17.8795 23.4992C17.7238 23.6549 17.5127 23.7423 17.2926 23.7423C17.0726 23.7423 16.8615 23.6549 16.7058 23.4992C16.5502 23.3436 16.4628 23.1325 16.4628 22.9124V11.2942ZM11.4835 11.2942C11.4835 11.0741 11.571 10.863 11.7266 10.7074C11.8822 10.5518 12.0933 10.4643 12.3134 10.4643C12.5335 10.4643 12.7446 10.5518 12.9002 10.7074C13.0559 10.863 13.1433 11.0741 13.1433 11.2942V22.9124C13.1433 23.1325 13.0559 23.3436 12.9002 23.4992C12.7446 23.6549 12.5335 23.7423 12.3134 23.7423C12.0933 23.7423 11.8822 23.6549 11.7266 23.4992C11.571 23.3436 11.4835 23.1325 11.4835 22.9124V11.2942ZM6.5043 11.2942C6.5043 11.0741 6.59173 10.863 6.74737 10.7074C6.903 10.5518 7.11408 10.4643 7.33417 10.4643C7.55427 10.4643 7.76535 10.5518 7.92098 10.7074C8.07661 10.863 8.16405 11.0741 8.16405 11.2942V22.9124C8.16405 23.1325 8.07661 23.3436 7.92098 23.4992C7.76535 23.6549 7.55427 23.7423 7.33417 23.7423C7.11408 23.7423 6.903 23.6549 6.74737 23.4992C6.59173 23.3436 6.5043 23.1325 6.5043 22.9124V11.2942ZM23.1018 2.16561H16.8777L16.3902 1.1957C16.2869 0.988343 16.1278 0.813919 15.9308 0.69205C15.7338 0.570181 15.5067 0.505702 15.275 0.505868H9.34662C9.11549 0.50498 8.88878 0.569218 8.69247 0.691222C8.49616 0.813227 8.33819 0.988063 8.23666 1.1957L7.74911 2.16561H1.52506C1.30497 2.16561 1.09389 2.25305 0.938255 2.40868C0.782623 2.56431 0.69519 2.77539 0.69519 2.99549L0.69519 4.65523C0.69519 4.87533 0.782623 5.08641 0.938255 5.24204C1.09389 5.39767 1.30497 5.48511 1.52506 5.48511H23.1018C23.3219 5.48511 23.5329 5.39767 23.6886 5.24204C23.8442 5.08641 23.9316 4.87533 23.9316 4.65523V2.99549C23.9316 2.77539 23.8442 2.56431 23.6886 2.40868C23.5329 2.25305 23.3219 2.16561 23.1018 2.16561Z" fill="white"/>
</svg>
