<svg fill="none" height="24" viewBox="0 0 24 24" width="24" xmlns="http://www.w3.org/2000/svg"><path d="m4.54601 20.891.45399-.891zm-.43702-.437.89101-.454zm-.06101-3.9884.98401.1781zm2.4176-2.4176.17814.984zm2.06124.4202-.41264.9109zm-.92885-.396.27148-.9624zm-.88222-.055-.07599-.9971zm.48786-.0146.07429-.9972zm4.96189 1.9007c.5446-.0914.9121-.607.8207-1.1517s-.607-.9122-1.1517-.8208zm1.8345 6.0967c.5523 0 1-.4477 1-1s-.4477-1-1-1zm3.29-4.7071c-.3906.3905-.3906 1.0237 0 1.4142.3905.3905 1.0237.3905 1.4142 0zm-2.1984-2.5422c-.1376.5349.1843 1.0801.7192 1.2177.5349.1377 1.08-.1843 1.2177-.7191zm2.9055 5.2493c-.5523 0-1 .4477-1 1s.4477 1 1 1zm.01 2c.5523 0 1-.4477 1-1s-.4477-1-1-1zm-4.0071-15c0 1.65685-1.3431 3-3 3v2c2.7614 0 5-2.23858 5-5zm-3 3c-1.65685 0-3-1.34315-3-3h-2c0 2.76142 2.23858 5 5 5zm-3-3c0-1.65685 1.34315-3 3-3v-2c-2.76142 0-5 2.23858-5 5zm3-3c1.6569 0 3 1.34315 3 3h2c0-2.76142-2.2386-5-5-5zm0 10c-.7366 0-1.4335-.1587-2.06055-.4427l-.82527 1.8218c.88117.3992 1.85895.6209 2.88582.6209zm-6 5.4v-1.7159h-2v1.7159zm.6.6c-.29653 0-.45878-.0008-.57537-.0103-.10491-.0086-.08214-.019-.02463.0103l-.90798 1.782c.27142.1383.54116.1824.76975.2011.21692.0177.47471.0169.73823.0169zm-2.6-.6c0 .2635-.00078.5213.01695.7382.01867.2286.06274.4984.20104.7698l1.78201-.908c.0293.0575.01887.0803.0103-.0246-.00952-.1166-.0103-.2789-.0103-.5754zm2 .6-1.78201.908c.19174.3763.49771.6823.87403.874zm0-2.3159c0-.6793.00403-.8859.03199-1.0404l-1.96801-.3563c-.06801.3757-.06398.8047-.06398 1.3967zm1.63976-4.664c-.11882.009-.23494.0226-.35232.0439l.35628 1.968c.03646-.0066.08274-.0128.14802-.0177zm-1.60777 3.6236c.14859-.8208.79096-1.4631 1.61173-1.6117l-.35628-1.968c-1.64154.2972-2.92628 1.5819-3.22346 3.2234zm3.90746-3.0864c-.47089-.2133-.83086-.3801-1.07-.4475l-.54295 1.9249c-.00591-.0017.00525.0012.04317.0159.03629.014.08588.0345.15446.0641.13883.06.32529.1444.59005.2644zm-2.14771 1.457c.23768-.0181.27494-.0191.33758-.0144l.14858-1.9945c-.23795-.0177-.42573-.0015-.63814.0147zm1.07771-1.9045c-.21517-.0607-.36861-.0878-.59155-.1044l-.14858 1.9945c.05906.0044.08408.008.09976.0107.01567.0028.04041.008.09742.0241zm3.96505.821c-.2707.0454-.5495.0692-.8345.0692v2c.3964 0 .7858-.033 1.1655-.0967zm2.1655 6.0692h-8.4v2h8.4zm4.997-4.5c0 .1732-.0454.3053-.3194.5697-.1537.1483-.3347.2956-.5857.5043-.2383.1983-.5178.4347-.8019.7189l1.4142 1.4142c.2158-.2158.4363-.4038.6667-.5955.2178-.1811.4743-.3893.6956-.6029.4761-.4594.9305-1.0773.9305-2.0087zm-1-1c.5523 0 1 .4477 1 1h2c0-1.6569-1.3431-3-3-3zm-.9685.7493c.1111-.4316.504-.7493.9685-.7493v-2c-1.3992 0-2.5724.957-2.9054 2.2507zm.9686 6.7507h.01v-2h-.01z" fill="#000"/></svg>