<svg width="1000" height="1000" viewBox="0 0 1000 1000" fill="none" xmlns="http://www.w3.org/2000/svg">
<path d="M508.352 695.165C535.587 690.595 553.965 664.815 549.394 637.58C544.823 610.345 519.039 591.97 491.8 596.54L508.352 695.165ZM600.093 1000C627.712 1000 650.101 977.615 650.101 950C650.101 922.385 627.712 900 600.093 900V1000ZM764.62 764.645C745.086 784.17 745.086 815.83 764.62 835.355C784.148 854.88 815.813 854.88 835.341 835.355L764.62 764.645ZM654.682 637.535C647.8 664.28 663.898 691.54 690.647 698.42C717.397 705.305 744.656 689.205 751.542 662.465L654.682 637.535ZM799.98 900C772.361 900 749.972 922.385 749.972 950C749.972 977.615 772.361 1000 799.98 1000V900ZM800.48 1000C828.1 1000 850.489 977.615 850.489 950C850.489 922.385 828.1 900 800.48 900V1000ZM600.093 250C600.093 332.842 532.927 400 450.068 400V500C588.161 500 700.109 388.071 700.109 250H600.093ZM450.068 400C367.212 400 300.043 332.842 300.043 250H200.027C200.027 388.071 311.974 500 450.068 500V400ZM300.043 250C300.043 167.157 367.212 100 450.068 100V0C311.974 0 200.027 111.929 200.027 250H300.043ZM450.068 100C532.927 100 600.093 167.157 600.093 250H700.109C700.109 111.929 588.161 0 450.068 0V100ZM450.068 600C413.232 600 378.381 592.065 347.024 577.865L305.753 668.955C349.819 688.915 398.716 700 450.068 700V600ZM150.019 870V784.205H50.0023V870H150.019ZM180.024 900C165.195 900 157.081 899.96 151.25 899.485C146.004 899.055 147.143 898.535 150.019 900L104.612 989.1C118.185 996.015 131.675 998.22 143.106 999.155C153.954 1000.04 166.845 1000 180.024 1000V900ZM50.0023 870C50.0023 883.175 49.9633 896.065 50.8499 906.91C51.7835 918.34 53.9874 931.83 60.9035 945.4L150.019 900C151.484 902.875 150.962 904.015 150.534 898.77C150.058 892.94 150.019 884.825 150.019 870H50.0023ZM150.019 900L60.9035 945.4C70.4921 964.215 85.7931 979.515 104.612 989.1L150.019 900ZM150.019 784.205C150.019 750.24 150.22 739.91 151.618 732.185L53.2018 714.37C49.8007 733.155 50.0023 754.605 50.0023 784.205H150.019ZM232.02 551.005C226.078 551.455 220.271 552.135 214.401 553.2L232.218 651.6C234.041 651.27 236.356 650.96 239.62 650.715L232.02 551.005ZM151.618 732.185C159.049 691.145 191.173 659.03 232.218 651.6L214.401 553.2C132.311 568.06 68.0632 632.295 53.2018 714.37L151.618 732.185ZM347.024 577.865C323.475 567.2 305.474 558.86 293.515 555.49L266.363 651.735C266.067 651.65 266.625 651.795 268.522 652.53C270.336 653.23 272.816 654.255 276.246 655.735C283.189 658.735 292.513 662.955 305.753 668.955L347.024 577.865ZM239.62 650.715C251.506 649.81 253.37 649.76 256.502 649.995L263.932 550.27C252.033 549.385 242.642 550.195 232.02 551.005L239.62 650.715ZM293.515 555.49C282.754 552.455 275.081 551.1 263.932 550.27L256.502 649.995C259.456 650.215 260.707 650.395 261.491 650.53C262.275 650.67 263.512 650.93 266.363 651.735L293.515 555.49ZM491.8 596.54C478.263 598.81 464.32 600 450.068 600V700C469.891 700 489.364 698.35 508.352 695.165L491.8 596.54ZM600.093 900H180.024V1000H600.093V900ZM849.984 675C849.984 683.66 847.713 690.265 834.011 703.485C826.325 710.9 817.273 718.265 804.721 728.7C792.804 738.615 778.827 750.435 764.62 764.645L835.341 835.355C846.133 824.565 857.16 815.165 868.682 805.58C879.573 796.525 892.401 786.115 903.467 775.435C927.276 752.465 950 721.57 950 675H849.984ZM799.975 625C827.595 625 849.984 647.385 849.984 675H950C950 592.155 882.834 525 799.975 525V625ZM751.542 662.465C757.098 640.885 776.747 625 799.975 625V525C730.004 525 671.334 572.85 654.682 637.535L751.542 662.465ZM799.98 1000H800.48V900H799.98V1000Z" fill="black"/>
</svg>
