<svg width="1000" height="1000" viewBox="0 0 1000 1000" fill="none" xmlns="http://www.w3.org/2000/svg">
<g clip-path="url(#clip0_727_357)">
<path fill-rule="evenodd" clip-rule="evenodd" d="M1000 231.707C1000 103.739 896.263 0 768.292 0C640.322 0 536.585 103.739 536.585 231.707C536.585 359.676 640.322 463.415 768.292 463.415C896.263 463.415 1000 359.676 1000 231.707Z" fill="#1C274C"/>
<path fill-rule="evenodd" clip-rule="evenodd" d="M463.415 768.293C463.415 640.323 359.676 536.586 231.707 536.586C103.739 536.586 0 640.323 0 768.293C0 896.264 103.739 1000 231.707 1000C359.676 1000 463.415 896.264 463.415 768.293Z" fill="#1C274C"/>
<g opacity="0.5">
<path fill-rule="evenodd" clip-rule="evenodd" d="M0 231.707C0 103.739 103.739 0 231.707 0C359.676 0 463.415 103.739 463.415 231.707C463.415 359.676 359.676 463.415 231.707 463.415C103.739 463.415 0 359.676 0 231.707Z" fill="#1C274C"/>
<path fill-rule="evenodd" clip-rule="evenodd" d="M536.585 768.293C536.585 640.323 640.322 536.586 768.292 536.586C896.263 536.586 1000 640.323 1000 768.293C1000 896.264 896.263 1000 768.292 1000C640.322 1000 536.585 896.264 536.585 768.293Z" fill="#1C274C"/>
</g>
</g>
<defs>
<clipPath id="clip0_727_357">
<rect width="1000" height="1000" fill="white"/>
</clipPath>
</defs>
</svg>
